<?xml version="1.0" encoding="UTF-8"?> <svg xmlns="http://www.w3.org/2000/svg" width="1730" height="315" viewBox="0 0 1730 315" fill="none"> <line y1="23" x2="1730" y2="23" stroke="#CFCFCF" stroke-width="10"></line> <line y1="23" x2="630" y2="23" stroke="white" stroke-width="10"></line> <circle cx="630" cy="28" r="28" fill="white"></circle> <path d="M1175.84 186.375C1174.63 186.375 1173.46 186.859 1172.6 187.72C1171.73 188.582 1171.25 189.75 1171.25 190.969V230.139L1104.42 190.139C1102.88 189.2 1101.11 188.693 1099.3 188.671C1097.5 188.649 1095.72 189.112 1094.15 190.013C1090.7 191.965 1088.56 195.743 1088.56 199.869V283.131C1088.56 287.257 1090.7 291.035 1094.15 292.987C1095.72 293.887 1097.5 294.35 1099.3 294.327C1101.11 294.305 1102.88 293.797 1104.42 292.858L1171.25 252.861V292.031C1171.25 293.25 1171.73 294.418 1172.6 295.28C1173.46 296.141 1174.63 296.625 1175.84 296.625C1177.06 296.625 1178.23 296.141 1179.09 295.28C1179.95 294.418 1180.44 293.25 1180.44 292.031V190.969C1180.44 189.75 1179.95 188.582 1179.09 187.72C1178.23 186.859 1177.06 186.375 1175.84 186.375Z" fill="white"></path> <path d="M554.156 186.375C555.375 186.375 556.543 186.859 557.405 187.72C558.266 188.582 558.75 189.75 558.75 190.969V230.139L625.58 190.139C627.124 189.2 628.892 188.693 630.698 188.671C632.505 188.649 634.284 189.112 635.85 190.013C639.296 191.965 641.438 195.743 641.438 199.869V283.131C641.438 287.257 639.296 291.035 635.85 292.987C634.284 293.887 632.504 294.35 630.698 294.327C628.891 294.305 627.124 293.797 625.58 292.858L558.75 252.861V292.031C558.75 293.25 558.266 294.418 557.405 295.28C556.543 296.141 555.375 296.625 554.156 296.625C552.938 296.625 551.769 296.141 550.908 295.28C550.046 294.418 549.562 293.25 549.562 292.031V190.969C549.562 189.75 550.046 188.582 550.908 187.72C551.769 186.859 552.938 186.375 554.156 186.375Z" fill="white"></path> </svg> 