<svg width="124" height="82" viewBox="0 0 124 82" fill="none" xmlns="http://www.w3.org/2000/svg">
<path d="M26.16 44.072C24.752 44.072 23.76 43.512 23.184 42.392C22.608 41.304 22.32 40.024 22.32 38.552C22.32 37.24 22.496 35.944 22.848 34.664C23.232 33.384 23.68 32.408 24.192 31.736C23.328 32.76 22.256 33.928 20.976 35.24C19.696 36.552 18.288 37.816 16.752 39.032C15.216 40.248 13.632 41.256 12 42.056C10.368 42.856 8.752 43.256 7.152 43.256C5.04 43.256 3.456 42.584 2.4 41.24C1.376 39.896 0.864 38.056 0.864 35.72C0.864 33.896 1.168 31.944 1.776 29.864C2.416 27.752 3.344 25.608 4.56 23.432C5.136 22.376 5.776 21.336 6.48 20.312C7.216 19.256 8 18.264 8.832 17.336C7.84 16.856 6.88 16.328 5.952 15.752C5.024 15.144 4.272 14.424 3.696 13.592C3.12 12.76 2.832 11.768 2.832 10.616C2.832 10.008 2.96 9.464 3.216 8.984C3.504 8.472 3.808 8.216 4.128 8.216C4.416 8.216 4.56 8.392 4.56 8.744C4.56 8.968 4.496 9.208 4.368 9.464C4.208 9.88 4.128 10.264 4.128 10.616C4.128 11.48 4.432 12.296 5.04 13.064C5.648 13.8 6.384 14.44 7.248 14.984C8.112 15.528 8.912 15.96 9.648 16.28C11.696 14.04 13.936 11.976 16.368 10.088C18.832 8.168 21.472 6.632 24.288 5.48C27.104 4.328 30.064 3.752 33.168 3.752C35.76 3.752 37.792 4.328 39.264 5.48C40.736 6.6 41.472 8.056 41.472 9.848C41.472 11.448 41.008 12.824 40.08 13.976C39.184 15.096 38 16.04 36.528 16.808C35.056 17.544 33.456 18.136 31.728 18.584C30.032 19 28.352 19.304 26.688 19.496C25.024 19.656 23.568 19.736 22.32 19.736C20.496 19.736 18.72 19.624 16.992 19.4C15.296 19.176 13.6 18.824 11.904 18.344C11.072 19.528 10.16 20.904 9.168 22.472C8.208 24.008 7.28 25.64 6.384 27.368C5.52 29.064 4.8 30.76 4.224 32.456C3.68 34.12 3.408 35.672 3.408 37.112C3.408 38.68 3.776 39.864 4.512 40.664C5.248 41.432 6.24 41.816 7.488 41.816C8.992 41.816 10.576 41.368 12.24 40.472C13.936 39.544 15.632 38.344 17.328 36.872C19.024 35.4 20.64 33.8 22.176 32.072C23.712 30.344 25.088 28.632 26.304 26.936C27.52 25.24 28.48 23.736 29.184 22.424C29.728 21.4 30.256 20.68 30.768 20.264C31.28 19.816 31.712 19.592 32.064 19.592C32.416 19.592 32.688 19.736 32.88 20.024C33.072 20.28 33.168 20.632 33.168 21.08C33.168 21.976 32.768 22.872 31.968 23.768C30.88 25.016 29.824 26.536 28.8 28.328C27.776 30.088 26.944 31.944 26.304 33.896C25.664 35.816 25.344 37.624 25.344 39.32C25.344 40.504 25.52 41.352 25.872 41.864C26.256 42.376 26.752 42.632 27.36 42.632C28.288 42.632 29.216 42.312 30.144 41.672C31.104 41.064 32.016 40.232 32.88 39.176C33.744 38.12 34.544 36.952 35.28 35.672C36.016 34.36 36.656 33.048 37.2 31.736C37.36 31.736 37.488 31.752 37.584 31.784C37.712 31.816 37.776 31.944 37.776 32.168C37.232 33.544 36.576 34.936 35.808 36.344C35.072 37.752 34.224 39.048 33.264 40.232C32.304 41.384 31.232 42.312 30.048 43.016C28.864 43.72 27.568 44.072 26.16 44.072ZM21.888 18.584C23.168 18.584 24.592 18.52 26.16 18.392C27.728 18.232 29.28 17.96 30.816 17.576C32.384 17.192 33.824 16.648 35.136 15.944C36.448 15.24 37.504 14.344 38.304 13.256C39.104 12.168 39.504 10.84 39.504 9.272C39.504 7.864 38.912 6.792 37.728 6.056C36.576 5.32 35.104 4.952 33.312 4.952C30.336 4.952 27.616 5.544 25.152 6.728C22.72 7.88 20.48 9.4 18.432 11.288C16.416 13.176 14.496 15.208 12.672 17.384C14.08 17.8 15.52 18.104 16.992 18.296C18.496 18.488 20.128 18.584 21.888 18.584Z" fill="black"/>
<path d="M106.16 81.072C104.752 81.072 103.76 80.512 103.184 79.392C102.608 78.304 102.32 77.024 102.32 75.552C102.32 74.24 102.496 72.944 102.848 71.664C103.232 70.384 103.68 69.408 104.192 68.736C103.328 69.76 102.256 70.928 100.976 72.24C99.696 73.552 98.288 74.816 96.752 76.032C95.216 77.248 93.632 78.256 92 79.056C90.368 79.856 88.752 80.256 87.152 80.256C85.04 80.256 83.456 79.584 82.4 78.24C81.376 76.896 80.864 75.056 80.864 72.72C80.864 70.896 81.168 68.944 81.776 66.864C82.416 64.752 83.344 62.608 84.56 60.432C85.136 59.376 85.776 58.336 86.48 57.312C87.216 56.256 88 55.264 88.832 54.336C87.84 53.856 86.88 53.328 85.952 52.752C85.024 52.144 84.272 51.424 83.696 50.592C83.12 49.76 82.832 48.768 82.832 47.616C82.832 47.008 82.96 46.464 83.216 45.984C83.504 45.472 83.808 45.216 84.128 45.216C84.416 45.216 84.56 45.392 84.56 45.744C84.56 45.968 84.496 46.208 84.368 46.464C84.208 46.88 84.128 47.264 84.128 47.616C84.128 48.48 84.432 49.296 85.04 50.064C85.648 50.8 86.384 51.44 87.248 51.984C88.112 52.528 88.912 52.96 89.648 53.28C91.696 51.04 93.936 48.976 96.368 47.088C98.832 45.168 101.472 43.632 104.288 42.48C107.104 41.328 110.064 40.752 113.168 40.752C115.76 40.752 117.792 41.328 119.264 42.48C120.736 43.6 121.472 45.056 121.472 46.848C121.472 48.448 121.008 49.824 120.08 50.976C119.184 52.096 118 53.04 116.528 53.808C115.056 54.544 113.456 55.136 111.728 55.584C110.032 56 108.352 56.304 106.688 56.496C105.024 56.656 103.568 56.736 102.32 56.736C100.496 56.736 98.72 56.624 96.992 56.4C95.296 56.176 93.6 55.824 91.904 55.344C91.072 56.528 90.16 57.904 89.168 59.472C88.208 61.008 87.28 62.64 86.384 64.368C85.52 66.064 84.8 67.76 84.224 69.456C83.68 71.12 83.408 72.672 83.408 74.112C83.408 75.68 83.776 76.864 84.512 77.664C85.248 78.432 86.24 78.816 87.488 78.816C88.992 78.816 90.576 78.368 92.24 77.472C93.936 76.544 95.632 75.344 97.328 73.872C99.024 72.4 100.64 70.8 102.176 69.072C103.712 67.344 105.088 65.632 106.304 63.936C107.52 62.24 108.48 60.736 109.184 59.424C109.728 58.4 110.256 57.68 110.768 57.264C111.28 56.816 111.712 56.592 112.064 56.592C112.416 56.592 112.688 56.736 112.88 57.024C113.072 57.28 113.168 57.632 113.168 58.08C113.168 58.976 112.768 59.872 111.968 60.768C110.88 62.016 109.824 63.536 108.8 65.328C107.776 67.088 106.944 68.944 106.304 70.896C105.664 72.816 105.344 74.624 105.344 76.32C105.344 77.504 105.52 78.352 105.872 78.864C106.256 79.376 106.752 79.632 107.36 79.632C108.288 79.632 109.216 79.312 110.144 78.672C111.104 78.064 112.016 77.232 112.88 76.176C113.744 75.12 114.544 73.952 115.28 72.672C116.016 71.36 116.656 70.048 117.2 68.736C117.36 68.736 117.488 68.752 117.584 68.784C117.712 68.816 117.776 68.944 117.776 69.168C117.232 70.544 116.576 71.936 115.808 73.344C115.072 74.752 114.224 76.048 113.264 77.232C112.304 78.384 111.232 79.312 110.048 80.016C108.864 80.72 107.568 81.072 106.16 81.072ZM101.888 55.584C103.168 55.584 104.592 55.52 106.16 55.392C107.728 55.232 109.28 54.96 110.816 54.576C112.384 54.192 113.824 53.648 115.136 52.944C116.448 52.24 117.504 51.344 118.304 50.256C119.104 49.168 119.504 47.84 119.504 46.272C119.504 44.864 118.912 43.792 117.728 43.056C116.576 42.32 115.104 41.952 113.312 41.952C110.336 41.952 107.616 42.544 105.152 43.728C102.72 44.88 100.48 46.4 98.432 48.288C96.416 50.176 94.496 52.208 92.672 54.384C94.08 54.8 95.52 55.104 96.992 55.296C98.496 55.488 100.128 55.584 101.888 55.584Z" fill="black"/>
<path d="M55.838 53.17C54.3647 53.17 53.1427 52.936 52.172 52.468C51.2013 52.0173 50.4733 51.4193 49.988 50.674C49.52 49.9113 49.286 49.1053 49.286 48.256C49.286 47.3027 49.572 46.358 50.144 45.422C50.716 44.4687 51.5653 43.654 52.692 42.978C53.836 42.2847 55.2313 41.8513 56.878 41.678C56.6353 41.3487 56.4533 40.976 56.332 40.56C56.2107 40.1267 56.15 39.7193 56.15 39.338C56.1673 38.4193 56.4273 37.6133 56.93 36.92C57.4327 36.2093 58.074 35.6113 58.854 35.126C59.6513 34.6407 60.5007 34.2767 61.402 34.034C62.3033 33.774 63.1527 33.644 63.95 33.644C64.4353 33.644 64.9293 33.7133 65.432 33.852C65.9347 33.9733 66.3593 34.1987 66.706 34.528C67.0527 34.8573 67.226 35.3253 67.226 35.932C67.226 36.4347 67.07 36.8853 66.758 37.284C66.446 37.6827 66.0647 37.882 65.614 37.882C65.2847 37.882 64.9987 37.7607 64.756 37.518C64.5133 37.2753 64.392 36.998 64.392 36.686C64.392 36.322 64.5047 36.0273 64.73 35.802C64.9727 35.5593 65.2673 35.438 65.614 35.438C65.77 35.438 65.9433 35.49 66.134 35.594C66.342 35.698 66.472 35.802 66.524 35.906C66.5413 35.8367 66.55 35.7413 66.55 35.62C66.55 35.152 66.3593 34.8227 65.978 34.632C65.5967 34.4413 65.1893 34.346 64.756 34.346C64.0627 34.346 63.2567 34.5193 62.338 34.866C61.4193 35.1953 60.5267 35.7413 59.66 36.504C59.348 36.7813 59.0273 37.1453 58.698 37.596C58.3687 38.0467 58.0913 38.532 57.866 39.052C57.6407 39.5547 57.528 40.066 57.528 40.586C57.528 40.9847 57.5973 41.3313 57.736 41.626C57.996 41.626 58.2907 41.6173 58.62 41.6C58.9667 41.5653 59.322 41.548 59.686 41.548C60.1367 41.548 60.492 41.6433 60.752 41.834C61.012 42.0247 61.142 42.2413 61.142 42.484C61.142 42.6573 61.038 42.822 60.83 42.978C60.622 43.134 60.2927 43.212 59.842 43.212C59.27 43.212 58.75 43.0907 58.282 42.848C57.8313 42.588 57.476 42.328 57.216 42.068C56.072 42.224 55.1013 42.6487 54.304 43.342C53.5067 44.0353 52.9 44.8587 52.484 45.812C52.068 46.748 51.86 47.684 51.86 48.62C51.86 49.3653 51.9987 50.0587 52.276 50.7C52.5707 51.3413 53.0127 51.8527 53.602 52.234C54.1913 52.6327 54.9367 52.832 55.838 52.832C56.774 52.832 57.6233 52.6587 58.386 52.312C59.166 51.9827 59.8333 51.5493 60.388 51.012C60.9427 50.4747 61.3673 49.9113 61.662 49.322C61.974 48.7153 62.13 48.152 62.13 47.632C62.13 47.1813 61.9653 46.8087 61.636 46.514C61.324 46.202 60.908 45.9767 60.388 45.838C59.868 45.682 59.3133 45.604 58.724 45.604C58.1173 45.604 57.5107 45.6907 56.904 45.864C56.3147 46.02 55.812 46.2713 55.396 46.618C54.98 46.9473 54.7287 47.372 54.642 47.892C54.642 47.9267 54.6333 47.97 54.616 48.022C54.616 48.0567 54.616 48.0913 54.616 48.126C54.616 48.5073 54.7547 48.8887 55.032 49.27C55.3267 49.634 55.7773 49.972 56.384 50.284C56.54 50.3533 56.618 50.4833 56.618 50.674C56.618 50.8647 56.5313 50.9167 56.358 50.83C55.4047 50.3273 54.7027 49.7813 54.252 49.192C53.8187 48.5853 53.602 48.0133 53.602 47.476C53.602 46.696 54.018 46.0287 54.85 45.474C55.6993 44.902 56.904 44.616 58.464 44.616H63.066C63.3433 44.616 63.7507 44.5553 64.288 44.434C64.8427 44.3127 65.406 44.1393 65.978 43.914C66.55 43.6713 67.0353 43.394 67.434 43.082C67.85 42.7527 68.058 42.38 68.058 41.964C68.058 41.7387 67.98 41.496 67.824 41.236C67.7893 41.184 67.772 41.1233 67.772 41.054C67.772 40.95 67.8153 40.898 67.902 40.898C67.9713 40.898 68.032 40.9413 68.084 41.028C68.344 41.4093 68.474 41.7993 68.474 42.198C68.474 42.666 68.3007 43.0993 67.954 43.498C67.6247 43.8967 67.174 44.252 66.602 44.564C66.03 44.8587 65.3887 45.084 64.678 45.24C63.9847 45.396 63.274 45.4653 62.546 45.448C62.8753 45.7253 63.118 46.0373 63.274 46.384C63.43 46.7307 63.508 47.0947 63.508 47.476C63.508 48.1173 63.3173 48.776 62.936 49.452C62.5547 50.1107 62.0173 50.726 61.324 51.298C60.6307 51.8527 59.816 52.3033 58.88 52.65C57.9613 52.9967 56.9473 53.17 55.838 53.17ZM59.842 42.77C60.414 42.77 60.7 42.6573 60.7 42.432C60.7 42.3453 60.622 42.2587 60.466 42.172C60.3273 42.068 60.1367 42.0073 59.894 41.99C59.79 41.9727 59.6167 41.964 59.374 41.964C59.1313 41.964 58.8713 41.964 58.594 41.964C58.334 41.964 58.1173 41.964 57.944 41.964C58.3773 42.5013 59.01 42.77 59.842 42.77Z" fill="black"/>
</svg>
